<?xml version="1.0" standalone="no"?>
<!DOCTYPE svg PUBLIC "-//W3C//DTD SVG 20010904//EN"
 "http://www.w3.org/TR/2001/REC-SVG-20010904/DTD/svg10.dtd">
<svg version="1.0" xmlns="http://www.w3.org/2000/svg"
 width="1024.000000pt" height="1024.000000pt" viewBox="0 0 1024.000000 1024.000000"
 preserveAspectRatio="xMidYMid meet">
<metadata>
Created by potrace 1.11, written by Peter Selinger 2001-2013
</metadata>
<g transform="translate(0.000000,1024.000000) scale(0.100000,-0.100000)"
fill="#000000" stroke="none">
<path d="M0 5120 l0 -5120 5120 0 5120 0 0 5120 0 5120 -5120 0 -5120 0 0
-5120z m10230 0 l0 -5110 -5110 0 -5110 0 0 5110 0 5110 5110 0 5110 0 0
-5110z"/>
<path d="M4795 9169 c-162 -13 -355 -41 -349 -50 3 -5 -2 -6 -10 -3 -23 9
-209 -28 -194 -38 8 -5 2 -6 -14 -2 -14 3 -37 0 -50 -7 -12 -7 -30 -12 -40
-11 -9 2 -19 -2 -23 -8 -3 -6 -11 -8 -16 -5 -5 4 -9 0 -9 -7 0 -10 -2 -10 -9
1 -6 9 -11 10 -15 3 -4 -6 -14 -8 -23 -5 -12 5 -14 3 -8 -7 5 -9 4 -11 -4 -6
-6 4 -18 2 -26 -4 -8 -6 -19 -9 -24 -5 -6 3 -23 -1 -39 -9 -15 -8 -44 -17 -65
-21 -20 -4 -35 -11 -32 -15 2 -4 -7 -5 -20 -2 -15 2 -25 0 -25 -7 0 -7 -4 -9
-10 -6 -5 3 -10 1 -10 -4 0 -6 -3 -10 -7 -10 -5 1 -12 0 -18 -1 -5 -1 -14 -3
-20 -5 -5 -1 -18 -3 -28 -3 -10 -1 -15 -6 -12 -12 3 -6 -1 -7 -9 -4 -9 3 -16
2 -16 -4 0 -5 -7 -13 -16 -16 -10 -4 -13 -2 -8 7 4 6 -3 3 -16 -8 -13 -11 -20
-14 -16 -8 5 9 2 11 -8 7 -9 -3 -13 -11 -9 -17 4 -6 0 -8 -10 -4 -10 3 -17 2
-17 -4 0 -6 -5 -7 -11 -4 -6 4 -20 -2 -32 -13 -12 -11 -30 -18 -40 -17 -9 2
-15 -1 -11 -6 5 -9 -9 -13 -35 -10 -7 2 -10 -2 -6 -8 6 -10 -8 -16 -30 -11 -5
1 -15 -6 -21 -15 -7 -9 -21 -17 -33 -18 -12 -1 -21 -4 -21 -7 0 -7 -63 -35
-72 -32 -5 1 -8 -2 -8 -8 0 -14 -59 -42 -72 -34 -6 4 -9 3 -5 -2 3 -5 -37 -34
-88 -63 -52 -30 -92 -58 -89 -63 3 -5 2 -8 -3 -7 -21 4 -34 -3 -59 -28 -15
-16 -23 -21 -20 -13 4 8 0 6 -8 -4 -9 -11 -16 -16 -16 -10 0 5 -10 -2 -23 -16
-12 -14 -20 -21 -17 -15 3 6 -3 2 -12 -8 -10 -11 -18 -15 -18 -11 0 5 -5 1
-11 -9 -6 -9 -14 -15 -19 -12 -5 3 -15 -3 -22 -13 -7 -11 -23 -22 -36 -26 -12
-4 -20 -11 -17 -16 5 -8 -23 -25 -38 -22 -4 1 -6 -1 -5 -5 2 -5 -1 -10 -7 -12
-5 -3 -21 -15 -34 -27 -14 -13 -28 -21 -32 -18 -4 2 -11 -1 -15 -7 -5 -8 -3
-9 7 -4 12 8 12 6 0 -9 -8 -9 -20 -15 -27 -12 -8 3 -13 1 -11 -4 1 -5 -43 -49
-98 -98 -55 -49 -99 -94 -97 -101 1 -6 -1 -10 -5 -9 -13 4 -73 -44 -67 -54 3
-4 -1 -8 -10 -8 -19 0 -107 -100 -99 -113 3 -6 2 -8 -3 -5 -11 7 -35 -17 -27
-26 4 -3 -1 -6 -10 -6 -19 0 -134 -137 -129 -153 2 -7 0 -9 -4 -5 -11 11 -34
-12 -34 -34 0 -10 -3 -17 -7 -15 -10 6 -34 -19 -26 -27 3 -3 -8 -21 -25 -40
-16 -19 -33 -32 -36 -29 -3 4 -6 -3 -6 -15 0 -11 -10 -28 -22 -37 -13 -8 -23
-19 -23 -23 0 -4 -3 -6 -6 -5 -4 1 -6 -5 -5 -15 0 -9 -5 -16 -12 -14 -8 1 -11
-2 -7 -8 3 -5 -8 -30 -24 -54 -17 -25 -31 -52 -31 -61 0 -9 -4 -13 -10 -10 -5
3 -10 -1 -10 -9 0 -9 -5 -16 -11 -16 -6 0 -9 -7 -5 -15 3 -8 -4 -21 -16 -29
-11 -8 -18 -19 -14 -24 3 -5 -9 -24 -27 -42 -18 -19 -26 -30 -19 -26 6 4 12 3
12 -2 0 -6 -7 -13 -16 -16 -8 -3 -13 -10 -10 -15 4 -5 0 -16 -8 -24 -8 -8 -12
-17 -9 -21 4 -3 1 -6 -5 -6 -7 0 -12 -7 -12 -16 0 -9 -5 -12 -12 -8 -7 4 -8 3
-4 -4 4 -6 -5 -34 -19 -61 -14 -28 -25 -55 -25 -61 0 -6 -7 -18 -15 -27 -8 -8
-13 -19 -10 -24 4 -5 2 -9 -4 -9 -6 0 -7 -7 -4 -17 5 -12 3 -14 -7 -8 -10 6
-12 4 -7 -8 3 -10 2 -17 -4 -17 -6 0 -7 -4 -4 -10 3 -5 2 -10 -4 -10 -6 0 -7
-7 -4 -17 4 -10 2 -14 -4 -10 -9 6 -15 -6 -24 -43 0 -3 -5 -10 -11 -17 -5 -7
-6 -18 -2 -24 4 -8 3 -9 -4 -5 -8 5 -12 0 -12 -13 0 -31 -2 -35 -18 -47 -9 -7
-13 -18 -9 -28 5 -11 3 -15 -5 -10 -8 5 -9 2 -5 -9 3 -10 2 -17 -4 -17 -6 0
-7 -4 -4 -10 3 -5 1 -10 -5 -10 -7 0 -10 -7 -6 -15 3 -8 0 -15 -6 -15 -6 0 -8
-3 -5 -7 4 -3 1 -13 -6 -21 -10 -13 -9 -14 3 -7 12 7 13 6 3 -7 -7 -8 -10 -18
-6 -21 3 -4 1 -7 -5 -7 -6 0 -9 -7 -5 -17 5 -12 3 -14 -7 -8 -8 5 -11 4 -7 -2
4 -6 -4 -49 -17 -94 -68 -238 -116 -473 -148 -729 -18 -143 -18 -737 0 -880
38 -303 104 -600 188 -848 43 -125 149 -390 175 -436 8 -14 8 -16 -3 -11 -7 5
-3 -2 10 -14 12 -12 20 -26 17 -31 -3 -4 -2 -10 2 -12 5 -1 18 -22 30 -46 12
-24 18 -40 12 -36 -7 4 -7 -1 1 -15 6 -12 17 -24 24 -27 6 -2 12 -13 13 -24 2
-28 48 -101 58 -93 4 5 5 2 0 -6 -5 -9 0 -20 16 -33 13 -11 17 -17 9 -13 -13
6 -13 5 0 -7 8 -7 16 -20 18 -28 2 -8 8 -16 13 -18 5 -2 9 -8 9 -13 0 -6 11
-26 25 -46 13 -20 21 -41 18 -46 -3 -6 -1 -7 4 -4 10 6 20 -7 21 -27 0 -5 7
-13 16 -18 9 -5 14 -13 11 -18 -3 -5 4 -14 15 -20 11 -6 20 -17 20 -24 0 -8 7
-19 15 -26 8 -7 13 -16 10 -20 -3 -5 0 -12 6 -16 8 -4 9 -3 5 4 -15 24 2 11
19 -14 12 -18 13 -24 4 -19 -8 3 -2 -3 14 -15 15 -12 25 -26 21 -31 -3 -5 2
-9 10 -9 8 0 18 -5 22 -12 5 -7 2 -9 -7 -4 -8 4 -6 1 3 -7 10 -8 15 -17 11
-20 -3 -4 1 -7 10 -7 8 0 19 -10 22 -22 4 -13 26 -40 49 -62 22 -21 34 -35 26
-30 -10 5 -9 0 4 -14 10 -12 23 -19 29 -15 5 3 7 1 4 -4 -8 -13 27 -46 37 -36
4 5 6 4 4 -2 -4 -13 47 -81 92 -120 69 -63 105 -97 90 -89 -15 9 2 -7 47 -43
12 -10 21 -21 20 -26 -1 -5 6 -11 17 -12 10 -2 24 -9 30 -16 8 -9 7 -10 -4 -4
-8 4 -6 -1 5 -12 11 -11 22 -19 24 -17 8 7 61 -37 58 -49 -1 -6 3 -11 8 -12 6
0 21 -10 35 -22 69 -60 104 -85 90 -67 -8 11 -1 5 16 -14 21 -24 36 -32 45
-27 8 5 11 5 7 0 -9 -9 41 -55 60 -55 6 0 12 -5 12 -11 0 -6 7 -8 16 -5 8 3
13 2 9 -3 -3 -5 11 -19 30 -31 19 -12 35 -26 35 -31 0 -5 3 -8 8 -7 15 4 52
-23 46 -34 -4 -6 -3 -8 4 -5 14 9 43 -3 36 -14 -3 -5 -2 -8 3 -7 16 4 53 -14
53 -26 0 -6 10 -12 22 -13 11 -1 24 -7 28 -13 4 -7 10 -11 14 -11 15 1 35 -12
30 -20 -3 -5 3 -6 12 -2 11 4 15 3 10 -5 -6 -10 29 -29 47 -24 4 1 7 -3 7 -9
0 -5 4 -8 9 -4 6 3 14 -3 20 -12 8 -14 10 -15 11 -3 0 9 3 11 8 5 4 -5 18 -19
32 -30 l25 -20 -15 20 c-14 20 -14 20 6 2 30 -25 95 -57 88 -43 -3 6 0 4 8 -4
7 -8 20 -16 28 -18 8 -2 17 -8 18 -13 2 -5 8 -9 13 -9 6 0 7 5 4 10 -4 6 4 5
19 -1 14 -7 23 -17 19 -22 -4 -6 0 -8 10 -4 10 3 17 2 17 -4 0 -6 4 -7 10 -4
5 3 10 2 10 -4 0 -6 6 -8 13 -5 8 3 20 -2 27 -10 7 -9 16 -13 21 -10 5 3 9 0
9 -5 0 -6 5 -11 11 -11 5 0 7 6 3 13 -4 6 2 4 14 -6 12 -11 26 -16 33 -11 8 5
10 3 4 -6 -6 -10 -3 -12 13 -8 14 4 20 2 15 -5 -4 -6 2 -8 15 -5 12 4 20 2 17
-2 -6 -10 44 -28 68 -24 10 1 14 -2 10 -9 -4 -6 0 -8 10 -4 9 3 17 1 19 -5 2
-6 18 -11 35 -12 17 0 29 -4 27 -7 -2 -3 65 -23 149 -44 84 -21 154 -42 155
-47 2 -4 7 -6 12 -3 14 9 149 -18 143 -28 -3 -6 -1 -7 5 -3 13 8 203 -15 197
-24 -2 -3 16 -4 38 -4 23 1 46 -1 52 -4 5 -3 29 -5 52 -5 24 1 41 -2 39 -6 -2
-3 30 -6 72 -5 45 1 83 -3 91 -10 11 -8 13 -8 8 0 -4 7 2 12 18 12 14 0 25 -3
25 -7 0 -8 188 -5 223 4 18 5 33 3 44 -6 12 -10 15 -10 9 -1 -9 16 6 16 23 0
11 -10 13 -10 7 0 -5 7 -1 12 9 12 10 0 13 -5 9 -13 -6 -9 -5 -9 7 0 8 6 32
11 54 11 22 -1 47 2 55 5 8 3 22 5 30 5 8 -1 32 2 53 6 27 5 37 4 37 -6 0 -9
2 -10 8 -2 9 16 43 21 61 10 10 -7 12 -6 6 4 -6 9 1 12 28 8 20 -2 34 -1 31 3
-2 5 4 8 13 8 33 1 88 9 104 15 8 4 36 8 62 9 26 1 47 5 47 8 0 6 78 23 110
24 8 0 17 3 20 6 4 5 87 28 155 44 72 17 164 49 159 56 -3 5 2 6 10 3 8 -3 25
0 38 7 13 7 30 14 38 15 39 6 89 28 83 37 -3 5 3 6 15 3 11 -4 23 -2 27 4 3 5
15 10 26 10 10 0 19 5 19 12 0 6 3 8 7 5 3 -4 15 1 26 10 11 10 17 12 13 5 -7
-11 -4 -12 13 -3 11 7 21 16 21 22 0 6 5 7 11 4 5 -4 19 1 29 10 11 10 31 19
46 21 14 1 32 11 41 21 8 10 11 11 7 3 -7 -13 -5 -13 9 -1 9 7 17 10 17 5 0
-5 5 -1 11 9 5 9 18 17 28 17 9 0 27 9 39 20 12 12 22 16 22 10 0 -6 5 -8 10
-5 6 4 7 11 4 17 -4 6 -2 8 3 5 6 -4 16 0 23 8 7 8 21 15 31 15 10 0 21 5 24
10 4 6 11 7 17 4 6 -4 8 -2 5 3 -7 10 20 28 36 25 4 -1 7 3 7 9 0 5 5 7 10 4
6 -3 10 -2 10 2 0 5 9 14 21 21 12 8 18 9 15 3 -4 -7 -1 -8 8 -5 9 3 13 10 10
15 -3 5 7 14 23 20 15 5 30 14 33 18 12 18 84 60 93 54 6 -3 7 -1 3 5 -4 7 -2
12 3 12 10 0 37 19 69 50 9 8 20 15 26 15 6 1 10 7 8 14 -1 7 1 10 6 7 10 -6
92 51 92 65 0 5 6 8 13 7 6 -2 11 4 9 12 -2 8 0 12 3 8 11 -11 47 11 39 24 -4
7 -3 8 4 4 7 -4 12 -2 12 3 0 6 5 11 10 11 6 0 21 10 33 21 12 12 15 18 7 14
-13 -8 -13 -6 -2 7 8 10 20 14 29 11 11 -4 14 -2 9 5 -4 7 -1 12 8 12 8 0 32
20 53 45 20 25 43 45 50 45 6 0 15 5 19 12 5 7 2 8 -7 3 -8 -4 -5 1 6 12 11
11 23 19 28 16 4 -2 7 3 7 11 0 16 33 39 44 31 3 -3 4 -2 2 1 -7 9 27 44 36
38 5 -3 7 -1 6 5 -2 5 33 49 77 97 44 48 87 97 94 108 8 12 23 27 33 34 10 7
16 18 13 23 -4 5 -1 9 5 9 6 0 9 4 6 9 -3 5 4 11 15 14 11 3 23 15 26 26 3 12
10 21 15 21 5 0 6 4 3 10 -3 5 1 10 9 10 9 0 13 6 10 14 -3 8 0 17 7 22 8 5
10 3 4 -6 -5 -9 -4 -11 3 -6 7 4 12 13 12 21 0 8 12 26 28 41 15 15 20 23 12
19 -8 -4 -1 5 15 20 17 14 23 24 15 20 -12 -5 -12 -4 1 7 8 7 18 21 22 31 3 9
11 17 17 17 6 0 9 4 6 9 -3 5 6 20 21 35 14 14 23 26 20 26 -3 0 23 46 59 102
35 56 62 108 59 116 -2 7 0 10 5 7 5 -3 12 6 16 20 3 14 10 25 16 25 5 0 7 4
4 9 -3 5 2 12 11 15 15 6 15 8 3 16 -10 6 -11 10 -3 10 15 0 58 79 54 99 -1 7
2 10 8 6 6 -3 12 -1 12 4 1 6 2 14 4 19 14 51 19 62 27 62 5 0 6 5 3 10 -3 6
-2 10 4 10 6 0 8 7 5 15 -4 8 -1 15 5 15 6 0 10 3 9 8 -1 7 0 11 40 107 113
273 202 585 251 880 40 243 46 324 46 665 0 215 -5 373 -13 440 -31 253 -83
506 -148 725 -20 66 -36 130 -36 143 0 12 -4 22 -8 22 -4 0 -10 8 -14 18 -3 9
-9 24 -12 32 -5 13 -4 13 6 0 10 -13 11 -12 6 3 -3 10 -6 21 -6 23 0 3 -4 3
-9 0 -5 -3 -11 3 -14 14 -3 13 -1 18 6 13 9 -5 9 -3 0 8 -11 14 -13 19 -13 40
0 5 -5 7 -12 3 -7 -5 -8 -3 -4 5 9 15 -13 73 -25 66 -4 -3 -6 3 -4 14 2 10 -3
27 -10 38 -8 10 -15 26 -15 35 0 10 -10 27 -22 39 -13 12 -17 18 -9 14 14 -8
-10 43 -36 75 -6 8 -13 20 -14 25 -7 36 -22 64 -32 58 -6 -3 -7 -1 -3 5 6 11
-42 113 -65 136 -13 14 -11 29 3 20 7 -4 8 -3 4 5 -4 6 -12 9 -17 6 -8 -6 -11
2 -8 21 0 4 -3 10 -8 13 -4 3 -15 15 -23 25 -13 18 -13 19 0 11 8 -5 0 7 -18
25 -18 19 -30 40 -28 47 3 7 1 13 -4 13 -6 0 -10 7 -10 16 0 9 -5 12 -12 8 -7
-4 -8 -3 -4 4 4 6 -2 20 -14 32 -11 11 -17 20 -14 20 3 0 -10 23 -30 50 -20
28 -36 52 -36 55 0 3 -9 14 -20 25 -12 12 -18 25 -15 30 3 5 0 12 -6 16 -8 5
-9 3 -4 -6 5 -9 4 -11 -3 -6 -7 4 -12 14 -12 22 0 8 -7 17 -15 20 -8 4 -13 9
-11 13 5 7 -15 37 -26 39 -5 1 -8 5 -9 10 -2 26 -168 214 -182 205 -5 -3 -7
-1 -4 4 8 13 -17 36 -27 25 -4 -4 -6 -2 -4 4 5 18 -41 76 -54 68 -6 -4 -8 -3
-4 4 6 10 -87 97 -105 97 -4 0 -14 6 -21 13 -6 6 -8 12 -3 12 5 0 -2 11 -15
25 -12 13 -27 22 -32 19 -5 -3 -7 -1 -6 4 2 5 -33 39 -77 77 -44 37 -92 78
-106 90 -15 13 -36 28 -48 35 -13 6 -19 16 -15 23 4 7 4 9 -1 5 -4 -4 -15 1
-24 10 -9 10 -14 13 -11 7 3 -6 -2 -3 -11 7 -9 9 -19 14 -23 11 -3 -4 -6 1 -6
11 0 9 -4 14 -10 11 -5 -3 -10 -1 -10 4 0 6 -3 10 -7 9 -5 -2 -18 7 -31 20
-12 12 -27 20 -32 17 -6 -4 -10 0 -10 8 0 12 -21 24 -52 31 -3 0 -10 5 -15 10
-5 5 -2 6 7 2 8 -4 4 1 -10 12 -13 11 -27 20 -30 20 -19 -2 -30 3 -26 11 7 10
-22 24 -34 16 -5 -3 -12 0 -16 6 -5 8 -3 9 6 4 9 -5 11 -4 6 3 -4 7 -12 12
-17 12 -6 0 -26 11 -46 25 -20 13 -40 22 -44 20 -4 -3 -10 2 -13 11 -3 9 -12
14 -20 11 -8 -3 -22 5 -32 18 -10 13 -21 22 -25 19 -4 -2 -14 3 -23 11 -8 9
-29 21 -46 26 -17 6 -27 16 -23 22 3 6 1 7 -6 3 -6 -4 -25 3 -43 15 -17 13
-28 18 -24 11 6 -9 2 -10 -18 -1 -14 7 -23 16 -20 20 3 5 -6 9 -19 9 -13 0
-32 9 -42 20 -20 22 -40 27 -29 8 4 -7 -2 -5 -13 5 -11 10 -30 19 -41 20 -11
0 -19 4 -17 8 7 10 -43 29 -60 23 -8 -4 -15 -1 -15 6 0 6 -5 8 -11 5 -6 -4
-17 1 -25 11 -9 11 -12 12 -8 4 7 -13 5 -13 -9 -1 -9 7 -17 10 -17 6 0 -4 -16
2 -36 14 -19 12 -32 15 -28 9 4 -7 -1 -6 -12 3 -10 9 -25 14 -33 11 -8 -2 -11
0 -7 6 3 6 -1 9 -11 7 -10 -1 -24 2 -30 8 -7 5 -13 6 -13 2 0 -4 -7 -2 -15 5
-8 7 -15 10 -15 6 0 -4 -11 1 -24 9 -14 9 -42 17 -64 18 -22 1 -37 6 -34 11 3
5 -2 7 -11 3 -10 -3 -17 -2 -17 2 0 5 -8 8 -17 7 -10 -2 -21 1 -24 6 -3 5 -22
10 -42 11 -20 1 -37 6 -37 11 0 4 -7 6 -15 3 -8 -4 -17 -2 -21 4 -3 5 -13 9
-22 8 -10 -1 -25 1 -35 6 -10 4 -38 8 -62 9 -23 0 -41 4 -39 7 3 6 -36 13
-136 26 -19 2 -87 11 -150 19 -63 8 -139 13 -168 12 -28 -2 -52 0 -52 5 0 9
-405 7 -535 -4z m668 -216 l177 -17 0 -604 0 -604 -28 5 c-104 21 -307 29
-594 23 -172 -3 -330 -8 -350 -12 l-38 -6 0 588 c0 324 4 594 8 601 12 19 244
40 457 42 117 1 258 -5 368 -16z m-905 -625 l-3 -603 -60 -13 c-204 -46 -458
-138 -630 -228 -122 -65 -321 -193 -371 -239 -6 -5 -28 -23 -50 -40 -137 -108
-423 -399 -461 -470 -7 -12 -19 -25 -28 -29 -8 -3 -15 -10 -15 -15 0 -6 -22
-40 -50 -77 -27 -37 -50 -70 -50 -75 0 -4 -6 -14 -12 -21 -35 -36 -177 -327
-225 -458 -41 -113 -64 -192 -86 -292 l-22 -98 -599 0 -599 0 7 68 c4 37 11
81 16 97 6 17 19 75 30 130 28 141 83 331 135 470 15 39 33 88 41 109 37 96
140 316 194 411 16 28 32 57 36 65 23 45 189 305 227 355 44 58 133 172 142
181 5 7 24 29 40 49 81 101 277 298 448 450 24 22 203 161 231 180 16 11 41
29 56 40 55 41 141 95 149 95 5 0 14 7 21 15 7 8 24 21 39 28 14 8 71 40 126
72 55 31 118 65 140 75 22 9 78 35 125 57 117 55 149 69 195 83 22 7 45 16 50
20 13 9 179 65 235 80 25 6 54 15 65 20 11 6 49 16 85 24 36 9 85 20 110 26
67 16 282 58 303 59 16 1 17 -32 15 -601z m1352 561 c205 -42 376 -89 510
-139 47 -17 110 -40 140 -51 30 -11 59 -24 64 -29 6 -6 16 -10 24 -10 19 0
341 -157 358 -175 8 -7 24 -17 36 -21 13 -4 41 -18 63 -32 22 -14 57 -36 78
-49 80 -50 124 -79 183 -123 34 -25 72 -52 84 -60 13 -8 80 -62 149 -119 201
-167 464 -439 596 -616 17 -22 33 -44 38 -50 51 -67 77 -106 77 -114 0 -6 4
-11 9 -11 9 0 34 -38 74 -110 11 -19 23 -37 27 -40 10 -7 150 -262 194 -354
41 -85 91 -203 107 -251 6 -16 15 -39 21 -49 31 -57 120 -356 154 -516 7 -36
20 -96 28 -135 9 -38 18 -91 22 -117 l6 -48 -615 0 -615 0 -6 23 c-4 12 -15
60 -27 107 -61 257 -195 562 -338 770 -25 36 -54 78 -65 95 -116 168 -453 506
-616 618 -196 135 -350 222 -515 290 -121 50 -191 75 -247 87 -32 6 -60 15
-63 20 -2 4 -26 11 -51 15 -26 3 -53 9 -60 12 -12 4 -14 107 -14 613 l0 607
28 -5 c15 -2 88 -17 162 -33z m-456 -1313 c66 -9 138 -21 160 -27 23 -5 79
-19 125 -29 46 -11 89 -24 95 -29 6 -4 34 -14 63 -21 29 -6 69 -20 90 -31 20
-10 43 -19 49 -19 26 0 261 -118 379 -191 17 -10 44 -26 60 -35 17 -9 44 -27
60 -41 17 -13 35 -27 40 -31 143 -105 314 -262 410 -377 32 -38 64 -77 72 -85
8 -8 32 -40 53 -70 22 -30 43 -59 47 -65 8 -10 41 -60 89 -135 48 -76 174
-337 174 -363 0 -7 7 -22 14 -33 8 -12 20 -43 27 -70 6 -27 15 -53 19 -59 13
-18 61 -216 82 -335 45 -269 45 -538 0 -825 -26 -162 -78 -358 -123 -460 -5
-11 -17 -43 -28 -70 -24 -63 -102 -224 -141 -290 -16 -27 -32 -57 -36 -65 -20
-40 -117 -175 -190 -265 -182 -225 -428 -440 -643 -563 -35 -21 -84 -49 -110
-64 -25 -16 -56 -32 -69 -38 -12 -5 -41 -18 -65 -29 -124 -56 -252 -103 -362
-135 -459 -132 -996 -125 -1438 19 -514 166 -912 449 -1255 890 -30 39 -165
251 -173 272 -6 15 -13 30 -17 33 -15 11 -118 234 -128 277 -4 15 -10 33 -14
38 -4 6 -21 55 -38 110 -107 342 -143 726 -98 1040 28 203 38 260 46 270 4 6
10 28 14 50 9 51 64 229 82 264 8 14 14 32 14 39 0 42 214 440 265 493 8 9 15
19 15 23 0 11 124 168 197 247 90 100 216 214 328 298 44 33 85 64 90 69 6 4
26 17 45 28 19 10 38 23 41 27 3 5 17 14 30 21 13 8 51 28 84 46 128 70 151
82 195 100 25 9 83 33 130 52 47 20 101 39 120 43 19 4 41 11 50 16 32 18 261
68 385 84 72 9 132 19 135 22 11 11 444 -5 554 -21z m-2932 -3138 c18 -81 53
-202 67 -233 5 -11 26 -65 47 -120 21 -55 44 -106 50 -112 7 -7 15 -26 19 -43
4 -16 11 -32 15 -35 5 -3 19 -25 30 -48 11 -23 31 -60 44 -82 14 -22 34 -56
45 -76 11 -19 27 -41 35 -48 9 -8 16 -18 16 -24 0 -6 7 -17 15 -26 8 -9 32
-39 53 -67 65 -90 104 -134 242 -273 156 -158 187 -186 289 -263 42 -32 81
-62 88 -67 22 -20 223 -141 232 -141 5 0 11 -4 13 -8 7 -18 312 -153 398 -176
14 -4 34 -11 45 -16 28 -13 253 -70 276 -70 18 0 19 -18 19 -611 l0 -611 -37
5 c-66 8 -277 47 -293 53 -8 4 -55 17 -105 29 -110 28 -223 61 -250 74 -11 5
-40 16 -65 24 -181 61 -458 188 -620 286 -19 11 -52 31 -74 43 -66 39 -169
104 -191 120 -104 79 -134 101 -155 115 -27 19 -169 136 -239 199 -52 46 -239
231 -294 291 -32 35 -138 164 -208 253 -16 21 -115 160 -149 210 -127 187
-291 512 -375 740 -15 41 -35 95 -45 120 -10 25 -21 61 -25 80 -4 19 -11 41
-16 50 -17 30 -119 472 -119 516 0 12 100 14 603 14 l603 0 16 -72z m6388 68
c0 -3 -5 -17 -10 -32 -8 -19 -7 -48 1 -98 11 -67 10 -78 -20 -201 -18 -71 -36
-139 -41 -150 -5 -11 -18 -51 -29 -90 -25 -89 -57 -181 -76 -222 -8 -17 -15
-34 -15 -38 0 -27 -228 -495 -263 -540 -4 -5 -22 -32 -39 -60 -56 -90 -82
-129 -147 -220 -64 -89 -157 -209 -196 -250 -11 -12 -49 -55 -85 -95 -254
-288 -593 -558 -955 -762 -219 -124 -432 -222 -595 -274 -25 -8 -54 -18 -65
-24 -20 -10 -97 -32 -260 -77 -49 -13 -146 -35 -215 -49 -69 -13 -137 -27
-152 -30 l-28 -6 0 614 0 614 88 23 c99 27 252 77 297 97 17 7 63 27 104 45
79 33 236 114 261 133 8 7 32 21 53 31 20 11 37 23 37 27 0 3 9 9 19 13 11 3
35 18 54 33 19 15 48 36 63 47 171 121 518 480 620 640 10 17 24 36 31 43 7 7
13 17 13 22 0 5 6 15 13 22 13 14 59 94 122 213 20 39 55 115 76 170 22 55 44
109 49 120 15 36 58 179 70 235 6 30 13 61 15 68 4 9 133 12 605 12 330 0 600
-2 600 -4z m-3270 -2615 l0 -609 -77 -7 c-43 -3 -111 -10 -151 -16 -40 -5
-168 -9 -283 -9 -184 0 -266 5 -446 26 l-43 5 0 606 0 605 24 -6 c139 -35 784
-32 903 4 15 4 38 9 51 9 l22 1 0 -609z m2130 195 c0 -2 -8 -10 -17 -17 -16
-13 -17 -12 -4 4 13 16 21 21 21 13z"/>
<path d="M3960 8486 c-14 -8 -45 -20 -70 -27 -70 -20 -70 -20 -65 -123 2 -50
7 -140 10 -201 4 -89 22 -225 29 -225 1 0 19 9 41 20 22 11 46 20 53 20 11 0
13 15 10 69 -3 68 -3 69 27 84 32 16 92 37 107 37 4 0 24 -22 44 -50 20 -27
42 -50 50 -50 13 0 105 29 112 35 6 5 -110 178 -138 205 -3 3 -21 27 -40 53
-19 27 -46 61 -60 76 -14 16 -36 43 -50 60 -28 35 -26 35 -60 17z m24 -171 c8
-11 27 -35 42 -53 30 -37 27 -42 -33 -65 l-43 -17 0 58 c0 31 -3 75 -6 97 -6
44 -10 46 40 -20z"/>
<path d="M3374 8220 c-93 -48 -171 -100 -179 -119 -3 -7 13 -40 35 -73 22 -33
40 -62 40 -64 0 -2 20 -33 45 -68 25 -36 45 -67 45 -69 0 -8 81 -126 89 -132
9 -5 101 50 101 61 0 11 -74 139 -84 146 -21 14 22 43 64 43 33 0 45 -7 82
-46 72 -75 70 -75 133 -44 l56 28 -23 25 c-73 81 -121 123 -147 128 l-29 6 19
44 c26 57 17 105 -25 145 -27 25 -39 29 -88 29 -47 0 -70 -7 -134 -40z m120
-86 c33 -32 19 -68 -48 -121 -19 -16 -46 -17 -46 -2 0 5 -11 27 -25 47 -14 20
-25 40 -25 44 0 13 74 47 102 48 15 0 34 -7 42 -16z"/>
<path d="M2914 7911 c-63 -30 -143 -110 -163 -165 -14 -36 -14 -135 1 -177 15
-44 94 -124 144 -145 56 -25 151 -22 208 5 62 31 140 117 156 175 34 121 -29
260 -143 315 -62 30 -128 28 -203 -8z m123 -103 c38 -17 72 -54 94 -103 23
-49 24 -87 4 -125 -22 -42 -53 -60 -105 -60 -57 0 -110 34 -144 93 -38 66 -40
83 -15 133 32 66 99 91 166 62z"/>
<path d="M2532 7570 c-57 -44 -88 -83 -126 -155 -34 -65 -36 -161 -5 -220 64
-121 214 -174 329 -117 52 25 138 104 159 145 8 15 18 27 23 27 20 0 5 29 -29
53 -37 27 -53 27 -53 1 0 -8 -4 -14 -8 -14 -5 0 -15 -11 -22 -25 -22 -41 -97
-85 -145 -85 -112 0 -188 123 -139 226 15 31 77 93 114 114 12 7 13 12 2 27
-6 10 -16 28 -22 41 -5 12 -14 22 -19 22 -5 0 -32 -18 -59 -40z"/>
<path d="M2157 7104 c-36 -55 -36 -55 -16 -75 10 -10 21 -19 24 -19 3 0 84
-52 180 -115 97 -63 179 -115 183 -115 5 0 23 21 41 47 l33 46 -24 19 c-12 10
-50 36 -83 59 -127 88 -150 105 -169 122 -11 9 -23 17 -27 17 -4 0 -14 6 -21
13 -7 7 -29 23 -49 35 l-35 21 -37 -55z"/>
<path d="M2027 6904 c-10 -10 -59 -115 -56 -118 2 -2 39 -22 82 -45 42 -23 77
-44 77 -46 0 -2 -13 -26 -29 -53 -16 -27 -34 -65 -42 -85 -7 -20 -18 -37 -24
-37 -6 0 -42 16 -81 35 -38 19 -74 35 -80 35 -6 0 -23 -26 -37 -57 -28 -61
-25 -76 16 -89 21 -6 118 -47 204 -85 23 -11 45 -19 49 -19 4 0 30 -11 58 -24
95 -45 101 -44 127 11 13 26 24 51 26 54 2 3 -37 24 -87 47 -49 23 -90 48 -90
55 1 11 35 84 68 143 l12 22 52 -29 c113 -61 148 -70 148 -36 0 8 10 27 21 42
l22 27 -29 23 c-16 13 -42 30 -59 36 -16 7 -32 15 -35 19 -3 3 -34 22 -70 43
-36 21 -72 42 -80 48 -8 5 -31 18 -50 29 -19 11 -48 29 -65 40 -34 21 -39 23
-48 14z"/>
<path d="M1752 6313 c-11 -16 -25 -46 -32 -68 -7 -22 -18 -46 -24 -54 -6 -8
-11 -55 -11 -110 0 -89 2 -99 29 -141 29 -45 63 -80 77 -80 4 0 15 -7 24 -16
24 -25 161 -31 207 -10 85 41 143 119 172 233 26 99 23 109 -26 116 -51 7 -58
3 -58 -30 0 -50 -25 -108 -66 -150 -38 -40 -44 -43 -95 -43 -78 0 -131 36
-153 101 -14 44 -14 54 0 101 9 29 25 69 36 88 l20 34 -31 28 c-39 35 -45 35
-69 1z"/>
<path d="M6300 8437 c0 -7 -9 -30 -19 -51 -11 -21 -23 -52 -27 -69 -3 -18 -15
-50 -25 -71 -11 -22 -19 -44 -19 -48 0 -5 -16 -49 -35 -98 -19 -49 -35 -93
-35 -98 0 -7 91 -52 105 -52 4 0 16 25 74 152 11 26 21 54 21 61 0 7 6 21 14
32 7 11 19 38 26 60 7 21 24 60 36 86 13 26 24 51 24 56 0 11 -98 53 -123 53
-9 0 -17 -6 -17 -13z"/>
<path d="M6558 8282 c-15 -31 -61 -128 -103 -216 -41 -87 -75 -162 -75 -166 0
-13 81 -52 96 -46 8 3 14 12 14 20 0 8 3 16 8 18 4 2 34 58 68 126 l61 122 7
-100 c3 -55 9 -144 12 -198 l7 -99 42 -26 c23 -15 46 -27 52 -27 5 0 30 30 55
68 24 37 62 93 84 126 21 32 44 65 49 75 6 9 28 42 48 74 21 31 35 61 32 66
-4 8 -92 61 -100 61 -1 0 -28 -43 -72 -115 -7 -11 -29 -51 -50 -88 l-38 -69
-6 181 c-4 124 -10 185 -19 196 -10 12 -129 75 -141 75 -2 0 -16 -26 -31 -58z"/>
<path d="M7085 7918 c-32 -46 -69 -96 -82 -113 -27 -35 -23 -30 -92 -123 l-53
-72 28 -23 c15 -12 42 -34 59 -49 55 -51 67 -59 148 -101 31 -16 60 -21 112
-22 63 0 77 4 125 33 129 79 163 200 88 318 -26 42 -79 98 -138 148 -19 16
-127 86 -132 86 -3 0 -31 -37 -63 -82z m213 -148 c42 -54 40 -127 -6 -177 -66
-71 -135 -85 -207 -42 -37 21 -64 46 -65 59 0 5 126 165 171 218 l20 23 33
-28 c19 -15 43 -39 54 -53z"/>
<path d="M7580 7505 c-34 -31 -70 -64 -79 -73 -45 -44 -205 -188 -215 -194 -7
-5 5 -24 35 -53 l45 -46 30 26 c16 14 40 36 54 49 14 12 50 42 80 66 30 24 62
50 70 59 8 9 38 34 65 55 81 63 81 63 33 115 -23 25 -46 47 -50 49 -4 2 -35
-22 -68 -53z"/>
<path d="M7855 7215 c-22 -9 -67 -22 -100 -30 -33 -9 -69 -20 -80 -25 -11 -5
-69 -25 -130 -46 -60 -20 -114 -40 -118 -44 -5 -4 2 -19 15 -32 13 -14 30 -35
40 -47 l16 -23 61 23 c34 12 63 20 64 18 2 -2 14 -20 28 -39 54 -74 54 -75 8
-130 l-42 -50 18 -34 c10 -19 26 -45 36 -57 l18 -24 23 30 c13 16 32 39 43 50
11 11 66 76 122 145 57 69 109 132 116 140 8 8 17 20 21 27 10 18 -87 163
-108 163 -6 -1 -29 -7 -51 -15z m-27 -185 c-49 -64 -78 -86 -78 -59 0 6 -9 24
-21 41 -12 16 -20 30 -18 32 9 7 145 55 157 55 7 1 -11 -30 -40 -69z"/>
<path d="M7955 6700 c-115 -59 -211 -112 -213 -118 -4 -14 31 -92 42 -92 10 0
82 33 210 96 49 24 91 42 92 41 2 -1 -11 -21 -29 -44 -37 -48 -108 -147 -122
-172 -5 -9 -25 -36 -44 -59 l-33 -42 18 -60 c10 -33 23 -60 30 -60 7 0 63 17
126 39 279 95 333 114 337 117 2 2 -1 14 -7 27 -6 12 -16 39 -22 60 -6 20 -13
37 -15 37 -3 0 -19 -7 -37 -15 -18 -8 -76 -31 -128 -51 -52 -21 -105 -44 -117
-52 -32 -20 -29 -12 13 33 19 22 60 78 91 125 31 47 64 97 74 112 25 35 24 47
-6 106 -14 28 -25 54 -25 60 0 26 -40 11 -235 -88z"/>
<path d="M5043 6755 c-34 -7 -70 -18 -80 -23 -10 -5 -40 -13 -68 -17 -27 -4
-68 -18 -91 -31 -22 -13 -54 -24 -70 -24 -52 0 -174 -81 -174 -116 0 -6 -13
-17 -29 -24 -16 -6 -37 -20 -47 -31 -9 -10 -22 -19 -28 -19 -14 0 -66 -55 -66
-69 0 -6 -27 -38 -60 -71 -60 -60 -60 -60 -119 -60 -41 0 -62 -5 -71 -16 -35
-42 -82 -46 -145 -14 -22 11 -44 20 -50 20 -21 0 -121 46 -175 80 -54 33 -58
34 -160 35 -96 0 -110 -3 -167 -29 -46 -22 -66 -39 -83 -68 -12 -21 -25 -38
-29 -38 -11 0 -31 -117 -31 -176 1 -91 17 -136 70 -193 8 -9 32 -39 52 -67 36
-49 108 -121 139 -140 9 -5 39 -40 69 -79 29 -38 70 -88 92 -109 21 -22 38
-43 38 -47 0 -3 16 -26 35 -50 19 -24 35 -50 35 -56 0 -7 5 -13 11 -13 23 0
41 -73 37 -150 -2 -61 -8 -82 -26 -105 -86 -111 -95 -150 -90 -378 3 -154 6
-176 26 -214 12 -23 22 -52 22 -64 0 -28 68 -171 86 -182 8 -4 21 -21 29 -37
8 -16 34 -46 57 -67 58 -52 117 -111 153 -153 65 -75 221 -177 365 -238 148
-63 185 -70 392 -75 109 -3 207 -3 218 0 30 8 25 44 -15 102 -19 28 -35 54
-35 57 0 4 -15 20 -32 37 -18 17 -91 86 -161 154 -70 68 -134 123 -141 123
-21 0 -57 58 -72 118 -8 31 -20 60 -27 64 -6 4 -8 10 -4 15 5 4 32 -4 60 -19
29 -15 72 -32 97 -38 25 -6 79 -28 120 -49 41 -21 93 -44 115 -51 22 -7 50
-20 63 -28 14 -9 65 -18 135 -22 128 -9 263 -25 357 -41 52 -9 70 -17 90 -40
67 -78 147 -157 166 -163 11 -3 41 -28 65 -54 92 -98 131 -122 211 -132 40 -5
115 -15 166 -22 l94 -12 52 27 c72 38 79 62 75 246 l-4 143 -30 24 c-63 51
-95 87 -106 122 -6 21 -24 50 -40 65 -24 24 -26 31 -16 48 7 11 20 22 29 25
42 13 119 150 137 244 5 27 11 34 26 32 11 -2 32 -3 47 -3 14 1 37 -3 50 -8
13 -5 31 -5 39 -1 8 5 77 16 153 25 86 10 149 23 164 33 32 21 52 70 52 127 0
39 -5 50 -40 85 -21 21 -56 48 -77 59 -21 11 -60 38 -88 60 -27 23 -66 48 -85
57 -19 9 -47 23 -62 30 -14 8 -56 14 -95 14 -114 1 -182 47 -213 145 -7 22
-19 49 -26 60 -8 11 -14 26 -14 35 0 19 -30 58 -86 117 -23 23 -44 49 -48 58
-3 9 -20 23 -38 33 -18 9 -69 52 -114 95 -46 42 -87 77 -92 77 -5 0 -20 10
-34 23 -55 48 -74 63 -108 78 -19 9 -63 39 -97 67 -35 28 -76 59 -93 68 -16
10 -30 21 -30 25 0 3 -20 14 -45 25 -25 10 -45 22 -45 26 0 12 -120 68 -145
68 -11 0 -33 7 -49 15 -15 8 -34 15 -41 15 -7 0 -24 11 -39 25 -37 34 -60 45
-94 45 -16 0 -35 7 -42 15 -10 12 -9 15 8 15 20 0 85 27 132 56 18 11 41 13
85 9 33 -3 78 -5 100 -5 22 0 53 -7 69 -15 36 -19 45 -19 85 1 17 9 55 19 84
23 29 4 69 15 91 24 21 10 64 17 95 17 65 0 101 19 101 55 0 13 -4 26 -9 30
-5 3 -12 18 -16 34 -3 16 -26 50 -50 76 -24 25 -46 54 -50 64 -7 22 -67 48
-128 54 -31 3 -57 13 -72 27 -18 17 -50 27 -132 40 -59 10 -132 25 -162 34
-65 19 -153 19 -238 1z"/>
<path d="M2330 3927 c-19 -6 -38 -15 -41 -20 -7 -10 5 -54 28 -97 7 -13 9 -28
5 -32 -4 -4 -59 -28 -122 -53 -63 -25 -128 -52 -145 -60 -16 -8 -42 -19 -57
-24 -16 -6 -28 -16 -28 -23 0 -21 44 -118 54 -118 5 0 37 13 70 29 238 114
279 132 286 124 5 -4 21 -32 35 -61 15 -29 30 -51 33 -49 4 2 22 9 40 16 17 7
32 20 32 28 0 9 -22 63 -50 120 -27 57 -50 107 -50 111 -1 4 -9 25 -20 47 -11
22 -19 45 -20 52 0 18 -12 21 -50 10z"/>
<path d="M2490 3460 c-104 -62 -113 -67 -160 -92 -104 -55 -180 -104 -180
-115 0 -7 10 -28 23 -46 12 -19 27 -43 32 -52 10 -17 15 -15 61 17 28 20 64
43 81 52 31 16 32 16 52 -18 25 -39 21 -54 -24 -111 -67 -85 -68 -88 -44 -129
11 -20 24 -36 28 -36 5 0 12 -10 18 -22 11 -25 11 -25 80 72 28 39 49 80 53
102 l5 38 29 -15 c42 -22 68 -19 114 15 88 63 73 160 -50 328 -21 28 -42 52
-46 51 -4 0 -36 -18 -72 -39z m117 -184 c11 -68 -73 -93 -121 -35 -32 38 -33
57 -3 69 12 5 33 18 47 29 l25 20 23 -25 c13 -13 26 -39 29 -58z"/>
<path d="M2779 3062 c-30 -26 -113 -94 -182 -151 -70 -57 -127 -109 -127 -115
0 -13 76 -96 87 -96 4 0 33 24 64 53 53 50 151 139 253 230 l49 44 -38 42
c-21 22 -41 41 -44 41 -3 0 -31 -22 -62 -48z"/>
<path d="M2827 2762 c-92 -92 -167 -170 -167 -174 0 -16 131 -137 186 -174 48
-32 68 -39 120 -42 59 -4 65 -2 93 25 37 38 48 88 28 136 l-15 35 33 -5 c86
-14 140 78 101 170 -14 35 -184 198 -205 196 -3 0 -81 -75 -174 -167z m230 11
c11 -10 27 -30 37 -45 16 -25 16 -28 1 -52 -10 -14 -25 -26 -34 -26 -22 0 -91
47 -91 62 0 9 58 78 65 78 1 0 11 -8 22 -17z m-113 -164 c43 -50 48 -91 12
-114 -21 -14 -27 -14 -64 0 -36 15 -93 65 -74 65 5 0 23 20 42 45 19 25 37 45
41 45 3 0 23 -19 43 -41z"/>
<path d="M3353 2593 c-21 -33 -25 -38 -58 -79 -14 -18 -25 -35 -25 -38 0 -3
-15 -25 -32 -49 -18 -24 -40 -54 -48 -67 -8 -12 -24 -35 -35 -49 -62 -81 -65
-88 -47 -103 21 -18 148 -100 182 -118 14 -7 27 -16 30 -20 11 -15 87 -48 97
-42 30 20 47 92 22 92 -6 0 -48 23 -95 51 -53 32 -82 55 -77 62 4 7 16 26 27
42 12 17 22 31 22 33 1 2 23 -11 50 -27 111 -68 120 -72 137 -53 34 40 41 82
13 82 -12 0 -136 77 -136 85 0 13 35 75 43 75 10 0 50 -20 57 -29 13 -18 103
-62 115 -57 18 7 48 64 40 76 -4 6 -25 20 -48 31 -23 12 -53 29 -67 39 -84 57
-136 90 -142 90 -4 0 -15 -12 -25 -27z"/>
<path d="M7556 3286 c-58 -57 -97 -129 -103 -190 -7 -69 3 -137 25 -165 49
-65 69 -85 106 -109 35 -23 52 -27 111 -26 59 0 77 4 115 29 74 47 153 147
166 211 5 28 3 31 -36 47 l-41 16 -19 -44 c-39 -92 -124 -147 -197 -129 -64
16 -123 90 -123 154 0 48 36 124 68 141 34 19 27 51 -20 87 -15 12 -22 9 -52
-22z"/>
<path d="M7990 3300 c-12 -12 -20 -33 -20 -55 0 -69 68 -98 115 -50 29 28 34
85 9 109 -22 23 -80 20 -104 -4z"/>
<path d="M7085 2741 c-89 -41 -150 -133 -143 -213 11 -109 120 -147 251 -88
56 26 81 25 94 -3 20 -43 -16 -84 -112 -131 -22 -11 -41 -20 -43 -22 -7 -4 19
-83 29 -89 13 -9 103 39 157 83 95 78 122 188 62 256 -47 53 -86 58 -202 22
-80 -24 -100 -27 -113 -16 -8 7 -15 20 -15 30 0 20 73 90 94 90 7 0 19 7 26
15 10 12 8 21 -7 46 -23 41 -29 43 -78 20z"/>
<path d="M7538 2672 c-30 -18 -51 -63 -41 -90 8 -24 44 -52 68 -52 11 0 33 11
48 25 66 62 0 164 -75 117z"/>
</g>
</svg>
